G04*
G04 #@! TF.GenerationSoftware,Altium Limited,Altium Designer,22.3.1 (43)*
G04*
G04 Layer_Physical_Order=1*
G04 Layer_Color=255*
%FSLAX44Y44*%
%MOMM*%
G71*
G04*
G04 #@! TF.SameCoordinates,2F88F96E-28FF-4886-B69B-D62DDFC80D9E*
G04*
G04*
G04 #@! TF.FilePolarity,Positive*
G04*
G01*
G75*
%ADD10R,1.3000X0.7000*%
%ADD11R,1.5240X2.5400*%
%ADD12R,2.5400X1.5240*%
%ADD13R,0.7000X1.3000*%
%ADD14C,0.0254*%
%ADD15C,1.2700*%
%ADD16C,0.5080*%
G36*
X698363Y444500D02*
X666750D01*
Y476250D01*
X635000D01*
Y507863D01*
X698363D01*
Y444500D01*
D02*
G37*
G36*
X63500Y476250D02*
X31750D01*
Y444500D01*
X137D01*
Y507863D01*
X63500D01*
Y476250D01*
D02*
G37*
G36*
X241035Y404981D02*
X242267Y404819D01*
X242464Y404794D01*
X242465Y404794D01*
X242467Y404793D01*
X242470Y404793D01*
X242470Y404793D01*
X242470Y404793D01*
X243876Y404481D01*
X243879Y404480D01*
X243881Y404480D01*
X243881Y404480D01*
X245254Y404047D01*
X245255Y404047D01*
X245256Y404046D01*
X245259Y404045D01*
X245260Y404045D01*
X245260Y404045D01*
X246592Y403493D01*
X246593Y403492D01*
X246596Y403491D01*
X246596Y403491D01*
X247873Y402826D01*
X247875Y402826D01*
X247876Y402825D01*
X247877Y402824D01*
X247878Y402824D01*
X247878Y402824D01*
X249092Y402050D01*
X249093Y402049D01*
X249096Y402047D01*
X249097Y402047D01*
X249097Y402047D01*
X250239Y401170D01*
X250239Y401170D01*
X250243Y401167D01*
X250437Y400989D01*
X251307Y400191D01*
X251308Y400190D01*
X251308Y400191D01*
X251427Y400061D01*
X252282Y399127D01*
X252739Y398531D01*
X253164Y397978D01*
X253164Y397978D01*
X253164Y397977D01*
X253939Y396762D01*
X253939Y396760D01*
X253941Y396758D01*
X253941Y396758D01*
X254064Y396521D01*
X254608Y395477D01*
X254608Y395476D01*
X254608Y395476D01*
X254712Y395225D01*
X255161Y394141D01*
X255161D01*
X255214Y393973D01*
X255594Y392766D01*
X255765Y391993D01*
X255907Y391353D01*
X255962Y390937D01*
X256096Y389916D01*
Y389916D01*
X256096Y389916D01*
X256159Y388481D01*
X256159Y388478D01*
Y388478D01*
X256159Y388477D01*
X256159Y388477D01*
X256159Y328484D01*
X256159Y328483D01*
X256158Y328483D01*
X256159Y328480D01*
X256159Y328477D01*
X256226Y327709D01*
X256242Y327534D01*
X256310Y327280D01*
X256487Y326619D01*
X256887Y325761D01*
X257430Y324986D01*
X258100Y324316D01*
X258875Y323773D01*
X259734Y323373D01*
X260459Y323178D01*
X260648Y323128D01*
X261042Y323069D01*
X261659Y322977D01*
X261659Y321804D01*
X261659Y313178D01*
X261658Y313172D01*
X260395Y311963D01*
X260392Y311963D01*
X260146Y311973D01*
X260146Y311973D01*
X258718Y312161D01*
X258717Y312162D01*
X257561Y312418D01*
X257307Y312474D01*
X257304Y312474D01*
X257302Y312475D01*
X255927Y312909D01*
X255355Y313146D01*
X254587Y313464D01*
X254587Y313464D01*
X254350Y313587D01*
X253305Y314131D01*
X253305Y314131D01*
X252091Y314905D01*
X252088Y314907D01*
X252087Y314907D01*
X250944Y315784D01*
X250431Y316254D01*
X249875Y316765D01*
D01*
X248902Y317826D01*
X248900Y317828D01*
X248899Y317829D01*
X248023Y318971D01*
X248021Y318974D01*
X248019Y318976D01*
X248019Y318977D01*
X248019Y318977D01*
X247245Y320192D01*
X247243Y320194D01*
X247243Y320196D01*
X246578Y321473D01*
X246577Y321474D01*
X246577Y321475D01*
X246576Y321478D01*
X246024Y322809D01*
X246024Y322811D01*
X246022Y322815D01*
X245918Y323144D01*
X245588Y324192D01*
X245588D01*
X245276Y325599D01*
X245191Y326242D01*
X245088Y327033D01*
X245033Y328276D01*
X245024Y328476D01*
Y328477D01*
X245024Y328477D01*
Y387202D01*
X245025Y388471D01*
X245024Y388477D01*
X245024D01*
X245023Y388483D01*
X244941Y389421D01*
X244863Y389713D01*
X244696Y390335D01*
X244296Y391194D01*
X243753Y391969D01*
X243083Y392639D01*
X242308Y393182D01*
X241450Y393582D01*
X240535Y393827D01*
X239573Y393912D01*
X239550Y393923D01*
X239533Y393941D01*
X239524Y393965D01*
X239524Y393977D01*
Y393977D01*
X197872D01*
X196659Y395121D01*
D01*
X196604Y394033D01*
X195648Y393827D01*
X195648Y393827D01*
X195355Y393749D01*
X194734Y393582D01*
X193875Y393182D01*
X193100Y392639D01*
X192430Y391969D01*
X191887Y391194D01*
X191487Y390335D01*
X191321Y389717D01*
X191242Y389421D01*
X191242Y389421D01*
X191038Y388484D01*
X189896Y388545D01*
X191037Y388479D01*
X191159Y387355D01*
X191159Y387202D01*
X191159Y329641D01*
X191157Y329620D01*
X190567Y328844D01*
X189889Y328477D01*
X189758Y328477D01*
X190173D01*
X191051Y327560D01*
X191029Y327039D01*
X190841Y325612D01*
X190529Y324207D01*
X190096Y322834D01*
X189546Y321504D01*
X188881Y320227D01*
X188107Y319013D01*
X187231Y317871D01*
X186259Y316810D01*
X185198Y315838D01*
X184056Y314961D01*
X182841Y314188D01*
X181565Y313523D01*
X180235Y312973D01*
X178862Y312540D01*
X177457Y312228D01*
X176030Y312040D01*
X175509Y312017D01*
X174592Y312896D01*
Y322977D01*
X175547Y323061D01*
X176473Y323309D01*
X177341Y323714D01*
X178127Y324264D01*
X178805Y324942D01*
X179355Y325727D01*
X179760Y326596D01*
X180008Y327522D01*
X180091Y328477D01*
X181275D01*
X180091Y328483D01*
X180024Y329686D01*
Y387314D01*
X180162Y388545D01*
X181298D01*
X180081Y389781D01*
X180087Y389918D01*
X180087Y389922D01*
X180088Y389924D01*
X180088Y389924D01*
X180275Y391350D01*
X180276Y391355D01*
X180277Y391357D01*
X180277Y391357D01*
X180588Y392761D01*
X180589Y392766D01*
X180590Y392768D01*
X180590Y392768D01*
X181022Y394141D01*
X181024Y394144D01*
X181024Y394146D01*
X181024Y394146D01*
X181575Y395475D01*
X181576Y395478D01*
X181577Y395481D01*
X181578Y395482D01*
X182243Y396759D01*
X182243Y396760D01*
X182244Y396762D01*
X182245Y396763D01*
X182245Y396763D01*
X183019Y397978D01*
X183020Y397979D01*
X183022Y397982D01*
X183899Y399126D01*
X183902Y399128D01*
X183902Y399129D01*
Y399129D01*
X184874Y400190D01*
X184876Y400192D01*
X184877Y400193D01*
X184879Y400194D01*
Y400194D01*
X185940Y401166D01*
X185941Y401168D01*
X185944Y401170D01*
X187085Y402046D01*
X187088Y402048D01*
X187089Y402049D01*
X187091Y402050D01*
X188305Y402823D01*
X188307Y402825D01*
X188309Y402825D01*
X188310Y402826D01*
X188310Y402826D01*
X189588Y403492D01*
X189590Y403493D01*
X189592Y403494D01*
X189592Y403494D01*
X190922Y404044D01*
X190926Y404046D01*
X190928Y404046D01*
X190928Y404047D01*
X192300Y404479D01*
X192302Y404480D01*
X192304Y404480D01*
X192306Y404481D01*
X192306Y404481D01*
X193711Y404792D01*
X193713Y404793D01*
X193715Y404793D01*
X193717Y404793D01*
X193717Y404793D01*
X195144Y404981D01*
X195144Y404981D01*
X195146Y404981D01*
X195148Y404982D01*
X195150Y404982D01*
X196143Y404289D01*
X196659Y403783D01*
X196659Y403779D01*
Y403779D01*
X196660Y403790D01*
X196931Y404977D01*
X239261D01*
X239522Y403794D01*
X239524Y403777D01*
Y403777D01*
X239524Y403783D01*
X240788Y404992D01*
X240791Y404992D01*
X241035Y404981D01*
D02*
G37*
G36*
X381000Y381000D02*
X355600D01*
Y363220D01*
X342900D01*
Y381000D01*
X317500D01*
Y412750D01*
X381000D01*
Y381000D01*
D02*
G37*
G36*
X303530Y311941D02*
X261713D01*
X261688Y311951D01*
X261669Y311970D01*
X261659Y311995D01*
Y321810D01*
X261725Y322953D01*
X262888Y323075D01*
X262979Y323076D01*
X303530D01*
Y311941D01*
D02*
G37*
G36*
X174586Y322978D02*
X174592Y321796D01*
Y312896D01*
X173790Y311910D01*
X133873D01*
X132659Y313180D01*
Y322910D01*
X133841Y323045D01*
X173382D01*
X174586Y322978D01*
D02*
G37*
G36*
X116901Y396839D02*
X123907Y395917D01*
X129909Y394586D01*
X130568Y393500D01*
X112341Y325477D01*
Y321803D01*
X112409Y323045D01*
X131445D01*
X132659Y322910D01*
Y312045D01*
X131445Y311910D01*
X112409D01*
X112341Y313152D01*
Y309477D01*
X130568Y241455D01*
X129909Y240369D01*
X123907Y239038D01*
X116901Y238116D01*
X109841Y237808D01*
X102782Y238116D01*
X95776Y239038D01*
X89774Y240369D01*
X89115Y241455D01*
X107341Y309477D01*
Y311977D01*
X66340D01*
Y322977D01*
X107341D01*
Y325477D01*
X89115Y393500D01*
X89774Y394586D01*
X95776Y395917D01*
X102782Y396839D01*
X109841Y397147D01*
X116901Y396839D01*
D02*
G37*
G36*
X451030Y341686D02*
X453019Y341424D01*
X454082Y341188D01*
X454741Y340103D01*
X451525Y328103D01*
Y324429D01*
X451593Y325671D01*
X503526D01*
Y335103D01*
X629325D01*
Y324254D01*
X629112D01*
Y311254D01*
X629325D01*
Y300103D01*
X503526D01*
Y310716D01*
X503593Y310784D01*
X502345Y309536D01*
X451593D01*
X451525Y310778D01*
Y307103D01*
X454741Y295104D01*
X454082Y294018D01*
X453019Y293783D01*
X451030Y293521D01*
X449025Y293433D01*
X447021Y293521D01*
X445032Y293783D01*
X443969Y294018D01*
X443310Y295104D01*
X446525Y307103D01*
Y309603D01*
X396125D01*
X394970Y309880D01*
Y325120D01*
X396040Y325603D01*
X446525D01*
Y328103D01*
X443310Y340103D01*
X443969Y341188D01*
X445032Y341424D01*
X447021Y341686D01*
X449025Y341773D01*
X451030Y341686D01*
D02*
G37*
G36*
X355600Y297180D02*
X342900D01*
Y337820D01*
X355600D01*
Y297180D01*
D02*
G37*
G36*
Y254000D02*
X381000D01*
Y222250D01*
X317500D01*
Y254000D01*
X342900D01*
Y271780D01*
X355600D01*
Y254000D01*
D02*
G37*
G36*
X641350Y31750D02*
X615950D01*
Y63500D01*
X622658D01*
Y58120D01*
X635658D01*
Y63500D01*
X641350D01*
Y31750D01*
D02*
G37*
G36*
X63500D02*
X38100D01*
Y63500D01*
X44808D01*
Y58120D01*
X57808D01*
Y63500D01*
X63500D01*
Y31750D01*
D02*
G37*
G36*
X698363Y137D02*
X577850D01*
Y107950D01*
X590550D01*
Y101750D01*
X583900D01*
Y88750D01*
X590550D01*
Y76200D01*
X609600D01*
Y25400D01*
X647700D01*
Y76200D01*
X666750D01*
Y88750D01*
X673400D01*
Y101750D01*
X666750D01*
Y107950D01*
X698363D01*
Y137D01*
D02*
G37*
G36*
X107950D02*
X137D01*
Y107950D01*
X12700D01*
Y101750D01*
X6050D01*
Y88750D01*
X12700D01*
Y76200D01*
X31750D01*
Y25400D01*
X69850D01*
Y76200D01*
X88900D01*
Y88750D01*
X95550D01*
Y101750D01*
X88900D01*
Y107950D01*
X107950D01*
Y137D01*
D02*
G37*
D10*
X629158Y80620D02*
D03*
Y61620D02*
D03*
Y125070D02*
D03*
Y106070D02*
D03*
Y169520D02*
D03*
Y150520D02*
D03*
Y213970D02*
D03*
Y194970D02*
D03*
X51308Y80620D02*
D03*
Y61620D02*
D03*
Y125070D02*
D03*
Y106070D02*
D03*
Y169520D02*
D03*
Y150520D02*
D03*
Y213970D02*
D03*
Y194970D02*
D03*
D11*
X349250Y350520D02*
D03*
Y284480D02*
D03*
D12*
X382270Y317500D02*
D03*
X316230D02*
D03*
D13*
X651612Y317754D02*
D03*
X632612D02*
D03*
X669900Y95250D02*
D03*
X650900D02*
D03*
X606400D02*
D03*
X587400D02*
D03*
X28550D02*
D03*
X9550D02*
D03*
X92050D02*
D03*
X73050D02*
D03*
X62840Y317246D02*
D03*
X43840D02*
D03*
D14*
X0Y0D02*
X698500D01*
X0Y508000D02*
X698500D01*
Y0D02*
Y508000D01*
X0Y0D02*
Y508000D01*
Y317246D02*
Y508000D01*
D15*
X685800Y317500D02*
X692023D01*
X685546Y317754D02*
X685800Y317500D01*
X651612Y317754D02*
X685546D01*
X6477Y317246D02*
X43840D01*
D16*
X628650Y81788D02*
Y95250D01*
X606400D02*
X627863D01*
X628650D02*
Y106541D01*
Y95250D02*
X650900D01*
X628650Y126492D02*
Y150991D01*
Y171704D02*
Y195441D01*
X629412Y214884D02*
Y249682D01*
X641604Y261874D01*
Y305054D01*
X633572Y313086D02*
X641604Y305054D01*
X633572Y313086D02*
Y316794D01*
X632612Y317754D02*
X633572Y316794D01*
X50800Y95250D02*
X73050D01*
X28550D02*
X50800D01*
Y82550D02*
Y106541D01*
Y127000D02*
Y150991D01*
Y171450D02*
Y195441D01*
Y215900D02*
Y285750D01*
X61976Y296926D01*
Y317500D01*
X132080Y81395D02*
X135254Y84569D01*
X141602D01*
X144776Y81395D01*
Y78221D01*
X141602Y75047D01*
X138428D01*
X141602D01*
X144776Y71873D01*
Y68699D01*
X141602Y65525D01*
X135254D01*
X132080Y68699D01*
X151124Y65525D02*
Y68699D01*
X154298D01*
Y65525D01*
X151124D01*
X166994Y81395D02*
X170168Y84569D01*
X176516D01*
X179690Y81395D01*
Y78221D01*
X176516Y75047D01*
X173342D01*
X176516D01*
X179690Y71873D01*
Y68699D01*
X176516Y65525D01*
X170168D01*
X166994Y68699D01*
X217777Y81395D02*
X214603Y84569D01*
X208255D01*
X205081Y81395D01*
Y68699D01*
X208255Y65525D01*
X214603D01*
X217777Y68699D01*
Y75047D01*
X211429D01*
X224125Y84569D02*
Y65525D01*
Y75047D01*
X236821D01*
Y84569D01*
Y65525D01*
X243169Y78221D02*
X255865D01*
X243169Y65525D01*
X255865D01*
X281257Y75047D02*
X293953D01*
X300301D02*
X312997D01*
X338388Y84569D02*
Y65525D01*
X344736Y71873D01*
X351084Y65525D01*
Y84569D01*
X357432Y65525D02*
X363780D01*
X360606D01*
Y78221D01*
X357432D01*
X373302Y65525D02*
Y78221D01*
X382824D01*
X385998Y75047D01*
Y65525D01*
X395520Y81395D02*
Y78221D01*
X392346D01*
X398694D01*
X395520D01*
Y68699D01*
X398694Y65525D01*
X417738D02*
X411390D01*
X408216Y68699D01*
Y75047D01*
X411390Y78221D01*
X417738D01*
X420912Y75047D01*
Y71873D01*
X408216D01*
X427260Y78221D02*
Y65525D01*
Y71873D01*
X430434Y75047D01*
X433608Y78221D01*
X436782D01*
X478043Y65525D02*
X465347D01*
X478043Y78221D01*
Y81395D01*
X474869Y84569D01*
X468521D01*
X465347Y81395D01*
X484391D02*
X487565Y84569D01*
X493913D01*
X497087Y81395D01*
Y68699D01*
X493913Y65525D01*
X487565D01*
X484391Y68699D01*
Y81395D01*
X516131Y65525D02*
X503435D01*
X516131Y78221D01*
Y81395D01*
X512957Y84569D01*
X506609D01*
X503435Y81395D01*
X522479D02*
X525653Y84569D01*
X532001D01*
X535175Y81395D01*
Y78221D01*
X532001Y75047D01*
X528827D01*
X532001D01*
X535175Y71873D01*
Y68699D01*
X532001Y65525D01*
X525653D01*
X522479Y68699D01*
X132080Y30480D02*
Y49524D01*
X144776Y30480D01*
Y49524D01*
X151124Y30480D02*
X157472D01*
X154298D01*
Y43176D01*
X151124D01*
X166994Y30480D02*
Y49524D01*
Y36828D02*
X176516Y43176D01*
X166994Y36828D02*
X176516Y30480D01*
X186038D02*
X192386D01*
X189212D01*
Y43176D01*
X186038D01*
X220951Y40002D02*
X233647D01*
X227299Y46350D02*
Y33654D01*
X259039Y30480D02*
Y49524D01*
X271735Y30480D01*
Y49524D01*
X278083Y30480D02*
X284431D01*
X281257D01*
Y43176D01*
X278083D01*
X306649D02*
X297127D01*
X293953Y40002D01*
Y33654D01*
X297127Y30480D01*
X306649D01*
X312997D02*
Y49524D01*
Y36828D02*
X322519Y43176D01*
X312997Y36828D02*
X322519Y30480D01*
M02*
